<svg xmlns="http://www.w3.org/2000/svg" width="17" height="17" fill="none" viewBox="0 0 17 17"><path fill="#E14F4F" d="M14.925 3.705a78.86 78.86 0 00-3.428-.263v-.007l-.156-.92c-.106-.652-.262-1.63-1.92-1.63H7.566c-1.65 0-1.807.935-1.92 1.622l-.149.907a61.79 61.79 0 00-1.976.149l-1.445.142a.532.532 0 00-.482.58c.029.29.284.503.581.475l1.445-.142c3.712-.368 7.452-.226 11.206.15h.057c.269 0 .503-.206.53-.483a.543.543 0 00-.488-.58zM13.621 5.766a.896.896 0 00-.645-.276H4.023a.884.884 0 00-.885.942l.439 7.267c.078 1.077.177 2.423 2.649 2.423h4.548c2.472 0 2.57-1.34 2.649-2.423l.439-7.26a.918.918 0 00-.241-.673zm-3.945 6.807h-2.36a.535.535 0 01-.53-.531c0-.29.24-.532.53-.532h2.36c.29 0 .53.241.53.532 0 .29-.24.53-.53.53zm.595-2.833H6.729a.535.535 0 01-.531-.532c0-.29.24-.53.53-.53h3.543c.29 0 .53.24.53.53 0 .29-.24.532-.53.532z"></path></svg>